<?xml version="1.0" standalone="no"?>
<!DOCTYPE svg PUBLIC "-//W3C//DTD SVG 20010904//EN"
 "http://www.w3.org/TR/2001/REC-SVG-20010904/DTD/svg10.dtd">
<svg version="1.0" xmlns="http://www.w3.org/2000/svg"
 width="3362.000000pt" height="1063.000000pt" viewBox="0 0 3362.000000 1063.000000"
 preserveAspectRatio="xMidYMid meet">

<g transform="translate(0.000000,1063.000000) scale(0.100000,-0.100000)"
fill="#000000" stroke="none">
<path d="M0 5315 l0 -5315 16810 0 16810 0 0 5315 0 5315 -16810 0 -16810 0 0
-5315z m3017 5299 c-3 -3 -12 -4 -19 -1 -8 3 -5 6 6 6 11 1 17 -2 13 -5z
m12130 0 c-3 -3 -12 -4 -19 -1 -8 3 -5 6 6 6 11 1 17 -2 13 -5z m-12447 -147
c0 -2 -10 -12 -22 -23 l-23 -19 19 23 c18 21 26 27 26 19z m12765 -17 c10 -11
16 -20 13 -20 -3 0 -13 9 -23 20 -10 11 -16 20 -13 20 3 0 13 -9 23 -20z
m-12825 -54 c0 -2 -8 -10 -17 -17 -16 -13 -17 -12 -4 4 13 16 21 21 21 13z
m12881 -13 c13 -16 12 -17 -3 -4 -17 13 -22 21 -14 21 2 0 10 -8 17 -17z
m-12381 -132 c0 -28 -1 -28 -70 -34 -77 -6 -145 -32 -175 -67 -11 -13 -15 -21
-10 -18 6 2 28 13 50 24 39 19 117 19 6070 22 5378 2 6035 0 6075 -13 85 -28
150 -119 150 -209 0 -40 -4 -47 -34 -65 l-33 -21 -6073 0 -6073 0 -32 20 c-50
31 -102 94 -114 137 -14 48 -14 80 -1 88 6 4 8 11 4 16 -9 15 34 72 74 99 32
22 118 47 170 49 18 1 22 -4 22 -28z m11968 19 c103 -24 174 -112 175 -219 0
-31 -5 -66 -11 -77 -10 -17 -11 -15 -12 15 0 84 -49 164 -123 204 l-42 22
-5549 3 c-3703 1 -5553 -1 -5560 -8 -13 -13 -63 -13 -71 0 -4 6 -131 10 -349
10 l-343 0 1 30 1 30 5920 0 c3872 0 5935 -4 5963 -10z m-12591 -142 c-3 -8
-6 -5 -6 6 -1 11 2 17 5 13 3 -3 4 -12 1 -19z m13120 -130 c-2 -24 -4 -7 -4
37 0 44 2 63 4 43 2 -21 2 -57 0 -80z m-13130 15 c-2 -16 -4 -5 -4 22 0 28 2
40 4 28 2 -13 2 -35 0 -50z m10 -85 c-3 -8 -6 -5 -6 6 -1 11 2 17 5 13 3 -3 4
-12 1 -19z m16953 -721 c478 -1093 511 -1166 562 -1242 49 -75 94 -108 161
-120 30 -6 37 -11 37 -31 l0 -24 -510 0 -510 0 0 25 c0 24 3 25 58 25 89 0
158 24 178 62 25 49 14 96 -72 306 l-79 192 -373 0 -372 0 -25 -56 c-88 -198
-99 -236 -100 -322 0 -83 0 -83 37 -117 38 -36 77 -49 171 -60 52 -6 57 -9 57
-31 l0 -24 -345 0 -345 0 0 25 c0 19 7 26 35 34 45 12 114 52 142 83 57 62
139 233 524 1092 287 642 418 926 429 926 10 0 117 -234 340 -743z m4615 718
c44 -9 149 -39 232 -66 167 -54 200 -58 245 -31 30 17 68 77 68 107 0 10 10
15 30 15 l30 0 0 -365 0 -365 -28 0 c-26 0 -30 5 -51 73 -67 210 -190 361
-366 448 -107 53 -204 72 -325 66 -164 -9 -291 -68 -416 -192 -95 -94 -131
-154 -178 -296 -52 -153 -69 -267 -69 -454 1 -446 119 -759 341 -899 116 -73
324 -104 488 -73 177 34 299 103 467 266 l107 104 0 -85 0 -86 -71 -67 c-239
-225 -543 -317 -914 -275 -327 38 -592 179 -767 410 -67 87 -141 243 -175 365
-26 93 -28 112 -27 285 1 202 10 258 73 415 151 376 486 644 891 710 106 18
304 13 415 -10z m-8458 -17 c-3 -8 -6 -5 -6 6 -1 11 2 17 5 13 3 -3 4 -12 1
-19z m16740 -7 c247 -62 439 -187 590 -384 244 -317 281 -815 89 -1194 -200
-395 -581 -604 -1056 -580 -377 20 -656 163 -849 437 -139 197 -201 403 -202
665 0 254 50 431 175 619 160 239 401 398 681 451 121 22 461 14 572 -14z
m-10647 -24 c52 -9 120 -23 150 -32 390 -116 528 -609 247 -889 -64 -65 -182
-131 -275 -156 l-43 -11 19 -27 c163 -233 493 -698 520 -732 88 -112 139 -151
215 -165 34 -7 37 -10 37 -41 l0 -34 -329 0 -329 0 -339 480 -338 480 -74 0
-73 0 5 -377 c3 -246 8 -391 16 -415 23 -73 111 -118 231 -118 47 0 50 -2 50
-25 l0 -25 -540 0 -540 0 0 24 c0 22 4 23 75 29 94 7 156 35 187 85 l23 37 0
880 c0 869 0 880 -21 915 -30 52 -87 79 -183 87 -77 6 -81 7 -81 30 l0 25 648
-5 c535 -3 663 -7 742 -20z m4320 -1 c0 -22 -4 -24 -82 -28 -100 -5 -155 -30
-189 -85 -24 -38 -24 -38 -27 -430 l-3 -393 371 0 371 0 -3 399 c-3 387 -4
400 -24 428 -36 49 -98 76 -186 81 -74 4 -78 6 -78 28 l0 24 550 0 550 0 0
-24 c0 -22 -4 -24 -82 -28 -100 -5 -155 -30 -189 -85 l-24 -38 0 -880 c0 -869
0 -880 21 -915 32 -55 93 -83 191 -88 79 -4 83 -6 83 -28 l0 -24 -550 0 -550
0 0 25 c0 24 3 25 58 25 74 0 152 23 180 52 51 55 52 68 52 503 l0 405 -371 0
-370 0 3 -417 c3 -474 1 -461 85 -509 37 -23 62 -29 130 -32 79 -4 83 -6 83
-28 l0 -24 -550 0 -550 0 0 25 c0 24 3 25 58 25 74 0 152 23 180 52 54 58 52
28 52 950 0 554 -4 866 -10 890 -21 73 -107 118 -224 118 -53 0 -56 1 -56 25
l0 25 550 0 550 0 0 -24z m2460 -1 c0 -24 -3 -25 -58 -25 -123 0 -198 -43
-222 -128 -8 -26 -10 -305 -8 -904 3 -861 3 -867 24 -895 36 -49 98 -76 186
-81 74 -4 78 -6 78 -28 l0 -24 -550 0 -550 0 0 24 c0 22 4 24 83 28 98 5 159
33 191 88 21 35 21 46 21 915 0 869 0 880 -21 915 -32 55 -93 83 -191 88 -79
4 -83 6 -83 28 l0 24 550 0 550 0 0 -25z m1110 0 c0 -23 -3 -25 -50 -25 -75 0
-150 -20 -177 -46 -28 -28 -31 -80 -8 -145 19 -54 516 -1221 524 -1231 6 -6
261 558 432 952 111 257 122 337 54 405 -38 38 -79 52 -172 62 -58 5 -63 8
-63 29 l0 24 345 0 345 0 0 -24 c0 -21 -8 -27 -52 -42 -79 -26 -170 -122 -233
-244 -27 -52 -225 -489 -441 -970 -381 -849 -394 -875 -420 -875 -26 0 -37 24
-433 945 -224 520 -424 978 -445 1018 -46 86 -70 108 -148 129 -50 14 -58 20
-58 40 l0 23 500 0 500 0 0 -25z m-25700 -51 c0 -2 -12 -4 -27 -4 -21 0 -24 3
-14 9 13 8 41 5 41 -5z m-1365 -4 c-3 -5 -14 -10 -23 -9 -14 0 -13 2 3 9 27
11 27 11 20 0z m-295 -133 c0 -2 -10 -12 -22 -23 l-23 -19 19 23 c18 21 26 27
26 19z m-100 -100 c0 -2 -10 -12 -22 -23 l-23 -19 19 23 c18 21 26 27 26 19z
m13965 -77 c10 -11 16 -20 13 -20 -3 0 -13 9 -23 20 -10 11 -16 20 -13 20 3 0
13 -9 23 -20z m-7080 -43 c3289 0 6050 1 6135 4 169 4 248 -6 385 -48 215 -67
390 -198 491 -365 21 -35 59 -90 85 -123 182 -235 409 -652 559 -1025 203
-504 391 -1226 481 -1844 21 -149 60 -186 206 -197 54 -3 117 -14 141 -22 94
-33 164 -105 204 -209 33 -87 33 -86 -90 -86 -153 -1 -244 -37 -319 -127 l-37
-45 -258 0 c-199 0 -258 3 -259 13 -1 6 -2 442 -4 967 -3 922 -4 957 -23 1005
-17 45 -551 1163 -702 1471 -96 196 -177 287 -303 337 -45 18 -78 22 -252 25
-110 2 -205 8 -212 13 -7 7 -14 6 -18 -1 -5 -8 -545 -11 -1973 -9 -2068 1
-2029 2 -2151 -43 -110 -41 -219 -131 -258 -213 -9 -19 -20 -35 -23 -35 -4 0
-21 20 -38 43 -57 81 -165 150 -283 184 -61 17 -155 18 -2169 15 -2309 -4
-2160 0 -2288 -64 -73 -37 -158 -116 -198 -184 l-28 -47 -15 24 c-31 50 -138
146 -192 173 -115 56 -99 55 -1524 55 -1413 1 -1375 2 -1497 -52 -236 -105
-459 -375 -486 -588 -9 -79 3 -3011 13 -3056 l7 -33 -522 0 -522 0 6 23 c12
45 75 387 105 572 16 105 47 294 67 420 65 409 151 751 316 1255 268 820 580
1469 826 1718 116 118 103 114 392 106 135 -4 2936 -7 6225 -7z m7210 -87 c10
-11 16 -20 13 -20 -3 0 -13 9 -23 20 -10 11 -16 20 -13 20 3 0 13 -9 23 -20z
m149 -216 c3 -8 2 -12 -4 -9 -6 3 -10 10 -10 16 0 14 7 11 14 -7z m-2744 -102
c1728 -6 1899 -8 1936 -24 82 -33 129 -61 181 -111 98 -92 146 -169 271 -435
44 -92 195 -407 336 -700 l257 -533 -8 -937 -8 -937 -2827 -3 -2828 -2 0 -150
0 -150 2811 0 c2673 0 2811 -1 2804 -17 -14 -38 -75 -141 -91 -154 -15 -12
-422 -14 -2768 -14 l-2751 0 -3 -490 c-2 -418 0 -501 13 -562 21 -93 76 -177
148 -227 95 -66 118 -69 450 -74 222 -3 297 -7 294 -15 -3 -9 -89 -12 -328
-12 -283 0 -330 2 -374 18 -104 36 -195 130 -232 240 -17 49 -18 194 -21 2487
-2 1828 0 2449 9 2490 33 157 140 274 289 316 33 9 111 11 295 8 138 -2 1103
-8 2145 -12z m-6695 -42 c114 -19 163 -20 1703 -20 1385 0 1595 -2 1651 -15
209 -50 367 -208 437 -440 17 -57 19 -145 21 -1612 l3 -1553 -2405 0 -2405 0
0 -150 0 -150 2405 0 2405 0 0 -23 c0 -13 5 -28 11 -34 5 -5 9 -37 7 -69 l-3
-59 -2413 2 -2412 1 3 -556 3 -557 29 -58 c37 -76 125 -158 202 -189 l58 -23
2130 0 c2033 0 2132 1 2182 18 29 10 69 30 90 44 l38 25 -29 -30 c-40 -43
-130 -88 -201 -102 -44 -8 -624 -10 -2161 -8 l-2100 3 -76 38 c-87 43 -142 98
-185 186 l-28 56 -2 2439 -2 2438 25 62 c59 149 201 279 361 330 74 24 90 25
310 26 187 0 253 -4 348 -20z m-1750 -44 c112 -5 197 -32 287 -93 88 -58 149
-129 199 -228 74 -150 70 -42 63 -1747 l-7 -1528 -1699 0 c-934 0 -1698 -4
-1698 -8 0 -36 138 -197 221 -258 l47 -34 1566 0 1566 0 0 -22 c0 -13 7 -32
15 -42 9 -11 15 -41 15 -68 l0 -48 -167 -2 c-93 -1 -454 0 -803 1 -349 2 -633
1 -630 -2 3 -2 59 -23 125 -45 308 -103 589 -252 848 -449 186 -142 453 -416
583 -598 39 -55 45 -70 39 -95 -4 -17 -11 -30 -15 -28 -5 2 -40 45 -79 97
-394 527 -968 914 -1586 1071 -338 86 -600 107 -982 78 -122 -9 -182 -9 -247
0 -292 39 -541 265 -612 557 -16 64 -18 191 -21 1460 -4 1266 -2 1394 13 1440
63 194 234 415 393 508 55 33 173 80 226 90 25 5 2216 -2 2340 -7z m12182
-2188 c-3 -8 -6 -5 -6 6 -1 11 2 17 5 13 3 -3 4 -12 1 -19z m6650 -417 c247
-62 439 -187 590 -384 244 -317 281 -815 89 -1194 -200 -395 -581 -604 -1056
-580 -377 20 -656 163 -849 437 -139 197 -201 403 -202 665 0 254 50 431 175
619 160 239 401 398 681 451 121 22 461 14 572 -14z m4530 0 c247 -62 439
-187 590 -384 244 -317 281 -815 89 -1194 -200 -395 -581 -604 -1056 -580
-377 20 -656 163 -849 437 -139 197 -201 403 -202 665 0 254 50 431 175 619
160 239 401 398 681 451 121 22 461 14 572 -14z m-7870 -689 c160 -378 295
-686 299 -685 4 1 134 309 288 685 l281 683 428 3 427 2 0 -25 c0 -24 -3 -25
-58 -25 -123 0 -198 -43 -222 -128 -8 -26 -10 -305 -8 -904 3 -861 3 -867 24
-895 36 -49 98 -76 186 -81 74 -4 78 -6 78 -28 l0 -24 -545 0 -545 0 0 25 c0
24 3 25 58 25 124 0 199 44 222 129 7 26 9 326 8 883 l-3 845 -400 -953 c-351
-838 -402 -954 -420 -952 -16 3 -93 172 -425 943 l-405 940 -3 -820 c-2 -580
0 -831 8 -858 6 -22 30 -57 53 -81 45 -44 94 -64 184 -73 47 -5 53 -8 53 -29
l0 -24 -360 0 -360 0 0 25 c0 23 4 25 45 25 59 0 144 33 183 71 17 17 40 56
52 86 20 55 21 66 18 892 -3 792 -4 838 -21 866 -38 63 -110 95 -214 95 -61 0
-63 1 -63 25 l0 25 433 0 432 -1 292 -687z m6263 403 l0 -285 -29 0 c-27 0
-30 4 -56 87 -55 176 -125 272 -242 329 -54 27 -67 29 -215 32 l-159 4 3 -908
3 -909 22 -35 c35 -56 93 -83 190 -88 79 -4 83 -6 83 -28 l0 -24 -550 0 -550
0 0 25 c0 24 3 25 58 25 114 0 191 40 224 115 10 24 14 215 16 928 l3 897
-118 0 c-136 0 -237 -19 -298 -55 -91 -53 -168 -171 -204 -315 -17 -68 -21
-75 -45 -78 l-26 -3 0 285 0 286 945 0 945 0 0 -285z m3970 262 c52 -9 120
-23 150 -32 390 -116 528 -609 247 -889 -64 -65 -182 -131 -275 -156 l-43 -11
19 -27 c163 -233 493 -698 520 -732 88 -112 139 -151 215 -165 34 -7 37 -10
37 -41 l0 -34 -329 0 -329 0 -339 480 -338 480 -74 0 -73 0 5 -377 c3 -246 8
-391 16 -415 23 -73 111 -118 231 -118 47 0 50 -2 50 -25 l0 -25 -540 0 -540
0 0 24 c0 22 4 23 75 29 94 7 156 35 187 85 l23 37 0 880 c0 869 0 880 -21
915 -30 52 -87 79 -183 87 -77 6 -81 7 -81 30 l0 25 648 -5 c535 -3 663 -7
742 -20z m-13403 -59 c-3 -8 -6 -5 -6 6 -1 11 2 17 5 13 3 -3 4 -12 1 -19z
m-16690 -50 c-3 -8 -6 -5 -6 6 -1 11 2 17 5 13 3 -3 4 -12 1 -19z m16728 -47
c-6 -5 -25 10 -25 20 0 5 6 4 14 -3 8 -7 12 -15 11 -17z m256 -118 c13 -16 12
-17 -3 -4 -10 7 -18 15 -18 17 0 8 8 3 21 -13z m-17024 -35 c-3 -8 -6 -5 -6 6
-1 11 2 17 5 13 3 -3 4 -12 1 -19z m17088 -18 c10 -11 16 -20 13 -20 -3 0 -13
9 -23 20 -10 11 -16 20 -13 20 3 0 13 -9 23 -20z m-17098 -32 c-3 -8 -6 -5 -6
6 -1 11 2 17 5 13 3 -3 4 -12 1 -19z m17154 -35 c13 -16 12 -17 -3 -4 -10 7
-18 15 -18 17 0 8 8 3 21 -13z m-17164 -35 c-3 -7 -5 -2 -5 12 0 14 2 19 5 13
2 -7 2 -19 0 -25z m-10 -70 c-3 -7 -5 -2 -5 12 0 14 2 19 5 13 2 -7 2 -19 0
-25z m-10 -85 c-3 -10 -5 -4 -5 12 0 17 2 24 5 18 2 -7 2 -21 0 -30z m-10
-115 c-3 -8 -6 -5 -6 6 -1 11 2 17 5 13 3 -3 4 -12 1 -19z m-10 -50 c-3 -8 -6
-5 -6 6 -1 11 2 17 5 13 3 -3 4 -12 1 -19z m-10 -50 c-3 -8 -6 -5 -6 6 -1 11
2 17 5 13 3 -3 4 -12 1 -19z m17601 5 c-42 -2 -114 -2 -160 0 -46 1 -11 3 77
3 88 0 125 -2 83 -3z m-17611 -65 c-3 -8 -6 -5 -6 6 -1 11 2 17 5 13 3 -3 4
-12 1 -19z m-10 -50 c-3 -8 -6 -5 -6 6 -1 11 2 17 5 13 3 -3 4 -12 1 -19z
m17914 5 c13 -16 12 -17 -3 -4 -10 7 -18 15 -18 17 0 8 8 3 21 -13z m-17934
-115 c-3 -8 -6 -5 -6 6 -1 11 2 17 5 13 3 -3 4 -12 1 -19z m18030 -80 c-3 -8
-6 -5 -6 6 -1 11 2 17 5 13 3 -3 4 -12 1 -19z m-18050 -30 c-3 -8 -6 -5 -6 6
-1 11 2 17 5 13 3 -3 4 -12 1 -19z m-20 -110 c-3 -8 -6 -5 -6 6 -1 11 2 17 5
13 3 -3 4 -12 1 -19z m18070 0 c-3 -8 -6 -5 -6 6 -1 11 2 17 5 13 3 -3 4 -12
1 -19z m-16415 -78 c21 -27 61 -68 89 -90 l51 -40 -204 -2 c-290 -2 -1212 4
-1217 8 -2 2 1 42 8 89 l13 85 612 -1 611 0 37 -49z m14960 -8 c15 -31 41 -72
58 -89 l31 -33 -303 -2 c-167 -1 -331 -2 -366 -2 -34 -1 -61 1 -59 4 25 44 77
158 77 167 0 10 57 13 268 12 l267 0 27 -57z m-16635 -24 c-3 -8 -6 -5 -6 6
-1 11 2 17 5 13 3 -3 4 -12 1 -19z m-10 -50 c-3 -8 -6 -5 -6 6 -1 11 2 17 5
13 3 -3 4 -12 1 -19z m-10 -60 c-3 -8 -6 -5 -6 6 -1 11 2 17 5 13 3 -3 4 -12
1 -19z m17983 8 c0 -2 -8 -10 -17 -17 -16 -13 -17 -12 -4 4 13 16 21 21 21 13z
m-17993 -58 c-3 -8 -6 -5 -6 6 -1 11 2 17 5 13 3 -3 4 -12 1 -19z m17751 -35
c-10 -2 -28 -2 -40 0 -13 2 -5 4 17 4 22 1 32 -1 23 -4z m-17761 -25 c-3 -8
-6 -5 -6 6 -1 11 2 17 5 13 3 -3 4 -12 1 -19z m-10 -50 c-3 -8 -6 -5 -6 6 -1
11 2 17 5 13 3 -3 4 -12 1 -19z m15683 -14 c0 -8 -100 -50 -166 -70 -54 -17
-155 -18 -1284 -24 -1207 -6 -1227 -6 -1340 -28 -239 -45 -465 -119 -650 -212
-44 -22 -80 -38 -80 -34 0 3 64 36 143 74 219 106 428 171 692 217 90 15 215
17 1285 20 1252 3 1256 3 1355 48 34 15 45 18 45 9z m2198 -137 l157 -3 -160
1 -160 0 -1 35 c-1 34 -1 34 3 3 l4 -33 157 -3z m-17901 41 c-3 -8 -6 -5 -6 6
-1 11 2 17 5 13 3 -3 4 -12 1 -19z m-20 -110 c-3 -8 -6 -5 -6 6 -1 11 2 17 5
13 3 -3 4 -12 1 -19z m18120 -460 c-1 -90 -3 -17 -3 162 0 179 2 252 3 163 2
-90 2 -236 0 -325z m-18130 410 c-3 -8 -6 -5 -6 6 -1 11 2 17 5 13 3 -3 4 -12
1 -19z m18003 -243 l0 -245 -115 0 -115 0 0 245 0 245 115 0 115 0 0 -245z
m-18013 170 c-6 -13 -31 -15 -179 -13 l-173 2 173 3 c152 3 172 5 172 20 0 9
3 14 6 10 4 -3 4 -13 1 -22z m-21 -157 c-3 -13 -6 -105 -6 -205 l0 -183 -120
0 -120 0 0 205 0 205 126 0 c126 0 126 0 120 -22z m17962 -385 l-158 -4 0
-124 0 -125 165 0 165 0 0 -195 0 -195 -167 2 -168 2 163 3 162 3 0 185 0 185
-162 2 -163 3 -3 133 -3 132 163 -2 163 -2 -157 -3z m-18307 -110 c13 -16 12
-17 -3 -4 -10 7 -18 15 -18 17 0 8 8 3 21 -13z m267 -20 c-42 -2 -114 -2 -160
0 -46 1 -11 3 77 3 88 0 125 -2 83 -3z m-160 -130 l-238 -3 0 -185 0 -185 238
-3 237 -2 -242 -3 -243 -2 0 195 0 195 243 -2 242 -3 -237 -2z m24081 -70
c-41 -43 -157 -165 -258 -270 l-184 -193 -63 0 c-35 0 -64 3 -64 7 0 4 39 126
87 270 l88 263 234 0 234 0 -74 -77z m-23842 -530 c-2 -16 -4 -5 -4 22 0 28 2
40 4 28 2 -13 2 -35 0 -50z m17800 -45 c-2 -13 -4 -5 -4 17 -1 22 1 32 4 23 2
-10 2 -28 0 -40z m-17790 -75 c-3 -10 -5 -4 -5 12 0 17 2 24 5 18 2 -7 2 -21
0 -30z m19388 2 c44 -9 149 -39 232 -66 167 -54 200 -58 245 -31 30 17 68 77
68 107 0 10 10 15 30 15 l30 0 0 -365 0 -365 -28 0 c-26 0 -30 5 -51 73 -67
210 -190 361 -366 448 -107 53 -204 72 -325 66 -164 -9 -291 -68 -416 -192
-95 -94 -131 -154 -178 -296 -52 -153 -69 -267 -69 -454 1 -446 119 -759 341
-899 116 -73 324 -104 488 -73 177 34 299 103 467 266 l107 104 0 -85 0 -86
-71 -67 c-239 -225 -543 -317 -914 -275 -327 38 -592 179 -767 410 -67 87
-141 243 -175 365 -26 93 -28 112 -27 285 1 202 10 258 73 415 151 376 486
644 891 710 106 18 304 13 415 -10z m4405 -718 c478 -1093 511 -1166 562
-1242 49 -75 94 -108 161 -120 30 -6 37 -11 37 -31 l0 -24 -510 0 -510 0 0 25
c0 24 3 25 58 25 89 0 158 24 178 62 25 49 14 96 -72 306 l-79 192 -373 0
-372 0 -25 -56 c-88 -198 -99 -236 -100 -322 0 -83 0 -83 37 -117 38 -36 77
-49 171 -60 52 -6 57 -9 57 -31 l0 -24 -345 0 -345 0 0 25 c0 19 7 26 35 34
45 12 114 52 142 83 57 62 139 233 524 1092 287 642 418 926 429 926 10 0 117
-234 340 -743z m1814 718 c33 -9 112 -38 177 -65 64 -28 130 -50 147 -50 43 0
80 34 95 88 10 34 20 48 35 50 19 3 21 -3 26 -80 3 -46 8 -204 11 -351 l6
-268 -32 3 c-30 3 -32 6 -50 75 -54 213 -208 392 -406 470 -59 23 -83 27 -178
28 -105 0 -114 -2 -178 -33 -164 -81 -213 -254 -111 -393 55 -76 148 -137 407
-270 287 -148 397 -217 498 -318 126 -125 174 -243 174 -426 0 -136 -26 -225
-97 -332 -124 -185 -327 -295 -573 -309 -133 -8 -254 13 -404 72 -187 73 -238
68 -311 -29 -23 -32 -42 -47 -57 -47 l-23 0 0 390 0 390 25 0 c14 0 27 -6 29
-12 2 -7 12 -42 21 -78 10 -36 40 -112 68 -170 45 -92 62 -116 142 -196 78
-78 104 -98 185 -137 107 -51 171 -67 268 -67 121 0 217 38 289 112 121 124
114 298 -15 427 -67 67 -125 103 -381 235 -250 130 -340 187 -432 274 -131
123 -189 243 -197 407 -6 125 8 192 59 294 85 171 248 289 454 330 68 14 257
6 329 -14z m3511 0 c44 -9 149 -39 232 -66 167 -54 200 -58 245 -31 30 17 68
77 68 107 0 10 10 15 30 15 l30 0 0 -365 0 -365 -28 0 c-26 0 -30 5 -51 73
-67 210 -190 361 -366 448 -107 53 -204 72 -325 66 -164 -9 -291 -68 -416
-192 -95 -94 -131 -154 -178 -296 -52 -153 -69 -267 -69 -454 1 -446 119 -759
341 -899 116 -73 324 -104 488 -73 177 34 299 103 467 266 l107 104 0 -85 0
-86 -71 -67 c-239 -225 -543 -317 -914 -275 -327 38 -592 179 -767 410 -67 87
-141 243 -175 365 -26 93 -28 112 -27 285 1 202 10 258 73 415 151 376 486
644 891 710 106 18 304 13 415 -10z m2342 -24 c247 -62 439 -187 590 -384 244
-317 281 -815 89 -1194 -200 -395 -581 -604 -1056 -580 -377 20 -656 163 -849
437 -139 197 -201 403 -202 665 0 254 50 431 175 619 160 239 401 398 681 451
121 22 461 14 572 -14z m-13680 -13 c-3 -7 -5 -2 -5 12 0 14 2 19 5 13 2 -7 2
-19 0 -25z m3573 -12 c0 -23 -3 -24 -92 -28 -116 -5 -167 -28 -200 -91 l-23
-42 0 -850 c0 -815 1 -851 19 -881 40 -66 55 -69 321 -69 221 0 246 2 311 22
179 57 303 213 396 500 33 102 33 103 65 103 30 0 32 -2 28 -27 -5 -30 -75
-692 -75 -711 0 -9 -235 -12 -935 -12 l-935 0 0 24 c0 22 4 23 83 28 47 3 97
13 114 21 43 23 81 71 90 115 10 48 10 1708 0 1744 -21 78 -111 128 -229 128
-55 0 -58 1 -58 25 l0 25 560 0 560 0 0 -24z m6170 -1 c0 -24 -3 -25 -58 -25
-123 0 -198 -43 -222 -128 -8 -26 -10 -305 -8 -904 3 -861 3 -867 24 -895 36
-49 98 -76 186 -81 74 -4 78 -6 78 -28 l0 -24 -550 0 -550 0 0 24 c0 22 4 24
83 28 98 5 159 33 191 88 21 35 21 46 21 915 0 869 0 880 -21 915 -32 55 -93
83 -191 88 -79 4 -83 6 -83 28 l0 24 550 0 550 0 0 -25z m-27513 -27 c-3 -7
-5 -2 -5 12 0 14 2 19 5 13 2 -7 2 -19 0 -25z m17760 -20 c-3 -8 -6 -5 -6 6
-1 11 2 17 5 13 3 -3 4 -12 1 -19z m-3082 -333 c61 -41 153 -110 207 -154 86
-71 98 -86 118 -138 23 -60 73 -249 84 -315 4 -21 19 -52 33 -70 27 -33 27
-33 -13 3 -54 51 -252 199 -304 228 l-42 23 7 -23 c4 -13 4 -21 0 -17 -4 3
-11 26 -16 49 -29 128 -171 357 -312 507 l-92 96 110 -58 c61 -32 160 -91 220
-131z m-9905 18 c84 -55 222 -159 271 -204 30 -29 88 -196 123 -353 l22 -103
-59 48 c-32 26 -97 73 -143 105 -71 49 -87 56 -95 44 -9 -12 -10 -12 -5 3 3 9
1 17 -4 17 -6 0 -10 8 -10 18 0 29 -114 251 -168 327 -27 39 -87 112 -133 164
l-83 95 100 -53 c54 -29 137 -78 184 -108z m-2496 -35 c-5 -7 -28 -42 -52 -78
-50 -73 -144 -260 -164 -327 -11 -40 -19 -47 -108 -100 -52 -31 -113 -69 -136
-84 l-40 -27 14 61 c24 109 73 271 87 293 17 26 142 114 290 206 122 74 119
73 109 56z m9832 -60 c-80 -116 -186 -336 -186 -386 0 -10 -6 -19 -12 -19 -18
0 -185 -100 -210 -125 -18 -18 -20 -18 -14 -1 3 10 19 70 35 133 50 197 64
225 137 279 57 40 281 181 290 181 2 0 -16 -28 -40 -62z m-8226 22 c82 -11
158 -27 325 -70 123 -32 125 -34 214 -165 88 -128 143 -259 177 -415 25 -116
25 -334 0 -450 -87 -404 -359 -723 -730 -855 -130 -47 -246 -67 -390 -67 -185
0 -333 31 -491 102 -156 70 -339 218 -444 358 -212 283 -278 684 -170 1037 27
91 99 237 146 300 36 46 45 51 136 82 232 78 502 135 747 157 72 6 398 -3 480
-14z m9880 0 c154 -20 408 -86 438 -114 13 -11 48 -55 77 -96 250 -356 283
-798 88 -1185 -62 -124 -121 -205 -223 -305 -145 -143 -306 -236 -494 -285
-329 -85 -684 -24 -967 165 -81 54 -232 206 -288 289 -238 350 -266 794 -76
1176 78 158 89 169 215 211 241 81 502 136 750 158 72 6 398 -3 480 -14z
m3740 -184 c0 -2 -8 -10 -17 -17 -16 -13 -17 -12 -4 4 13 16 21 21 21 13z
m-17190 -61 c13 -14 21 -25 18 -25 -2 0 -15 11 -28 25 -13 14 -21 25 -18 25 2
0 15 -11 28 -25z m17120 -18 c0 -2 -17 -19 -37 -38 l-38 -34 34 38 c33 34 41
42 41 34z m-17020 -82 c13 -14 21 -25 18 -25 -2 0 -15 11 -28 25 -13 14 -21
25 -18 25 2 0 15 -11 28 -25z m16910 -18 c0 -2 -10 -12 -22 -23 l-23 -19 19
23 c18 21 26 27 26 19z m-2531 -107 c0 -9 -4 -8 -9 5 -5 11 -9 27 -9 35 0 9 4
8 9 -5 5 -11 9 -27 9 -35z m8 -42 c-3 -8 -6 -5 -6 6 -1 11 2 17 5 13 3 -3 4
-12 1 -19z m-2910 -20 c-3 -8 -6 -5 -6 6 -1 11 2 17 5 13 3 -3 4 -12 1 -19z
m2920 -20 c-3 -8 -6 -5 -6 6 -1 11 2 17 5 13 3 -3 4 -12 1 -19z m10 -60 c-3
-7 -5 -2 -5 12 0 14 2 19 5 13 2 -7 2 -19 0 -25z m-9870 -20 c-3 -8 -6 -5 -6
6 -1 11 2 17 5 13 3 -3 4 -12 1 -19z m6723 19 c0 -2 -10 -12 -22 -23 l-23 -19
19 23 c18 21 26 27 26 19z m197 -19 c-3 -8 -6 -5 -6 6 -1 11 2 17 5 13 3 -3 4
-12 1 -19z m2960 -40 c-3 -7 -5 -2 -5 12 0 14 2 19 5 13 2 -7 2 -19 0 -25z
m-13760 6 c-3 -3 -12 -4 -19 -1 -8 3 -5 6 6 6 11 1 17 -2 13 -5z m15640 0 c-3
-3 -12 -4 -19 -1 -8 3 -5 6 6 6 11 1 17 -2 13 -5z m-15574 -11 c-7 -2 -19 -2
-25 0 -7 3 -2 5 12 5 14 0 19 -2 13 -5z m10724 -25 c-3 -7 -5 -2 -5 12 0 14 2
19 5 13 2 -7 2 -19 0 -25z m4786 25 c-7 -2 -19 -2 -25 0 -7 3 -2 5 12 5 14 0
19 -2 13 -5z m-15370 -10 c-13 -2 -35 -2 -50 0 -16 2 -5 4 22 4 28 0 40 -2 28
-4z m384 1 c-3 -3 -12 -4 -19 -1 -8 3 -5 6 6 6 11 1 17 -2 13 -5z m3300 -16
c-3 -8 -6 -5 -6 6 -1 11 2 17 5 13 3 -3 4 -12 1 -19z m370 16 c-3 -3 -12 -4
-19 -1 -8 3 -5 6 6 6 11 1 17 -2 13 -5z m11231 -1 c-10 -2 -28 -2 -40 0 -13 2
-5 4 17 4 22 1 32 -1 23 -4z m-225 -10 c-7 -2 -21 -2 -30 0 -10 3 -4 5 12 5
17 0 24 -2 18 -5z m-1496 -70 c-3 -10 -5 -2 -5 17 0 19 2 27 5 18 2 -10 2 -26
0 -35z m-12860 -5 c-3 -7 -5 -2 -5 12 0 14 2 19 5 13 2 -7 2 -19 0 -25z m2990
-70 c-2 -18 -4 -6 -4 27 0 33 2 48 4 33 2 -15 2 -42 0 -60z m6880 -100 c-2
-35 -3 -7 -3 62 0 69 1 97 3 63 2 -35 2 -91 0 -125z m-6880 -15 c-2 -16 -4 -3
-4 27 0 30 2 43 4 28 2 -16 2 -40 0 -55z m-2990 -55 c-2 -13 -4 -5 -4 17 -1
22 1 32 4 23 2 -10 2 -28 0 -40z m12860 10 c-3 -7 -5 -2 -5 12 0 14 2 19 5 13
2 -7 2 -19 0 -25z m-9880 -60 c-3 -7 -5 -2 -5 12 0 14 2 19 5 13 2 -7 2 -19 0
-25z m6900 -30 c-3 -7 -5 -2 -5 12 0 14 2 19 5 13 2 -7 2 -19 0 -25z m2970 10
c-3 -8 -6 -5 -6 6 -1 11 2 17 5 13 3 -3 4 -12 1 -19z m-12840 -20 c-3 -7 -5
-2 -5 12 0 14 2 19 5 13 2 -7 2 -19 0 -25z m9880 -50 c-3 -8 -6 -5 -6 6 -1 11
2 17 5 13 3 -3 4 -12 1 -19z m-9870 -10 c-3 -8 -6 -5 -6 6 -1 11 2 17 5 13 3
-3 4 -12 1 -19z m9880 -40 c-3 -8 -6 -5 -6 6 -1 11 2 17 5 13 3 -3 4 -12 1
-19z m-9870 -10 c-3 -8 -6 -5 -6 6 -1 11 2 17 5 13 3 -3 4 -12 1 -19z m274
-575 c13 -16 12 -17 -3 -4 -17 13 -22 21 -14 21 2 0 10 -8 17 -17z m2389 13
c0 -2 -8 -10 -17 -17 -16 -13 -17 -12 -4 4 13 16 21 21 21 13z m9850 -30 c0
-2 -8 -10 -17 -17 -16 -13 -17 -12 -4 4 13 16 21 21 21 13z m-12199 -33 c13
-16 12 -17 -3 -4 -10 7 -18 15 -18 17 0 8 8 3 21 -13z m2309 13 c0 -2 -8 -10
-17 -17 -16 -13 -17 -12 -4 4 13 16 21 21 21 13z m7575 -26 c10 -11 16 -20 13
-20 -3 0 -13 9 -23 20 -10 11 -16 20 -13 20 3 0 13 -9 23 -20z m2265 -13 c0
-2 -15 -16 -32 -33 l-33 -29 29 33 c28 30 36 37 36 29z m-9890 -20 c0 -1 -30
-32 -67 -67 l-68 -65 65 68 c60 62 70 72 70 64z m-2174 -49 l29 -33 -32 29
c-31 28 -38 36 -30 36 2 0 16 -15 33 -32z m11954 -41 c0 -2 -12 -14 -27 -28
l-28 -24 24 28 c23 25 31 32 31 24z m-1995 -37 c10 -11 16 -20 13 -20 -3 0
-13 9 -23 20 -10 11 -16 20 -13 20 3 0 13 -9 23 -20z m-9864 -7 c13 -16 12
-17 -3 -4 -10 7 -18 15 -18 17 0 8 8 3 21 -13z m1919 -17 c0 -2 -8 -10 -17
-17 -16 -13 -17 -12 -4 4 13 16 21 21 21 13z m9860 -10 c0 -2 -8 -10 -17 -17
-16 -13 -17 -12 -4 4 13 16 21 21 21 13z m-10453 -292 c-3 -3 -12 -4 -19 -1
-8 3 -5 6 6 6 11 1 17 -2 13 -5z m-630 -10 c-3 -3 -12 -4 -19 -1 -8 3 -5 6 6
6 11 1 17 -2 13 -5z m60 -10 c-3 -3 -12 -4 -19 -1 -8 3 -5 6 6 6 11 1 17 -2
13 -5z m466 -1 c-7 -2 -19 -2 -25 0 -7 3 -2 5 12 5 14 0 19 -2 13 -5z m9404 1
c-3 -3 -12 -4 -19 -1 -8 3 -5 6 6 6 11 1 17 -2 13 -5z m470 0 c-3 -3 -12 -4
-19 -1 -8 3 -5 6 6 6 11 1 17 -2 13 -5z m-10254 -11 c-7 -2 -21 -2 -30 0 -10
3 -4 5 12 5 17 0 24 -2 18 -5z m300 0 c-7 -2 -21 -2 -30 0 -10 3 -4 5 12 5 17
0 24 -2 18 -5z m9570 0 c-7 -2 -21 -2 -30 0 -10 3 -4 5 12 5 17 0 24 -2 18 -5z
m310 0 c-7 -2 -21 -2 -30 0 -10 3 -4 5 12 5 17 0 24 -2 18 -5z"/>
<path d="M3383 10104 c-3 -8 2 -23 11 -32 15 -15 17 -15 32 0 21 21 11 48 -16
48 -11 0 -23 -7 -27 -16z"/>
<path d="M3052 10098 c-7 -7 -12 -22 -12 -34 0 -51 72 -61 78 -11 6 47 -36 75
-66 45z"/>
<path d="M3610 10025 c0 -8 5 -15 10 -15 6 0 10 7 10 15 0 8 -4 15 -10 15 -5
0 -10 -7 -10 -15z"/>
<path d="M3194 10005 c-4 -9 -2 -21 4 -27 16 -16 47 -5 47 17 0 26 -42 34 -51
10z"/>
<path d="M3310 9900 c0 -5 7 -10 16 -10 8 0 12 5 9 10 -3 6 -10 10 -16 10 -5
0 -9 -4 -9 -10z"/>
<path d="M3550 9890 c0 -5 7 -10 16 -10 8 0 12 5 9 10 -3 6 -10 10 -16 10 -5
0 -9 -4 -9 -10z"/>
<path d="M18900 9174 c-11 -27 -82 -185 -157 -352 -75 -166 -134 -305 -131
-307 3 -3 145 -4 316 -3 l310 3 -150 345 c-82 190 -153 349 -158 354 -4 4 -18
-14 -30 -40z"/>
<path d="M31930 9814 c-224 -60 -373 -300 -421 -679 -15 -118 -15 -466 0 -580
30 -231 108 -442 204 -550 110 -124 297 -175 472 -129 200 51 338 251 397 571
30 162 32 597 5 772 -64 407 -247 613 -540 610 -34 0 -87 -7 -117 -15z"/>
<path d="M21110 9324 l0 -457 148 6 c162 5 234 18 302 52 145 74 217 254 190
477 -21 177 -77 266 -205 328 -76 37 -158 50 -312 50 l-123 0 0 -456z"/>
<path d="M15253 9404 c-3 -8 2 -23 11 -32 15 -15 17 -15 32 0 21 21 11 48 -16
48 -11 0 -23 -7 -27 -16z"/>
<path d="M15457 9407 c-8 -22 17 -51 37 -44 25 10 17 51 -10 55 -12 2 -24 -3
-27 -11z"/>
<path d="M15120 9295 c0 -8 5 -15 10 -15 6 0 10 7 10 15 0 8 -4 15 -10 15 -5
0 -10 -7 -10 -15z"/>
<path d="M15637 9287 c-8 -21 8 -39 29 -35 27 5 25 42 -2 46 -12 2 -24 -3 -27
-11z"/>
<path d="M15440 9255 c0 -8 5 -15 10 -15 6 0 10 7 10 15 0 8 -4 15 -10 15 -5
0 -10 -7 -10 -15z"/>
<path d="M11535 8929 c-279 -41 -496 -258 -534 -536 -15 -103 -16 -1434 -2
-1510 35 -188 122 -325 265 -421 116 -78 201 -102 386 -111 85 -5 1098 -5
2250 -1 2351 7 2130 -1 2300 83 213 105 330 294 300 484 -14 87 -19 98 -267
613 -121 250 -287 595 -369 765 -82 171 -170 342 -197 382 -81 122 -174 194
-307 239 -53 18 -130 19 -1910 20 -1024 1 -1882 -2 -1915 -7z m3780 -368 c51
-29 102 -110 169 -266 60 -139 403 -858 603 -1263 80 -164 84 -175 72 -204
-17 -41 -78 -83 -158 -111 l-66 -22 -2172 -3 c-2167 -2 -2172 -2 -2226 18 -74
28 -139 87 -168 152 -23 52 -23 61 -31 513 -5 253 -5 582 0 730 8 263 9 271
34 320 34 65 69 97 143 132 l60 28 1805 5 c993 3 1828 1 1855 -3 28 -5 64 -16
80 -26z"/>
<path d="M13135 6220 c-14 -43 19 -79 59 -64 22 8 31 50 16 69 -19 23 -67 19
-75 -5z"/>
<path d="M12852 6171 c4 -13 18 -16 19 -4 0 4 -5 9 -11 12 -7 2 -11 -2 -8 -8z"/>
<path d="M12716 6091 c-4 -5 -2 -12 3 -15 5 -4 12 -2 15 3 4 5 2 12 -3 15 -5
4 -12 2 -15 -3z"/>
<path d="M13397 6083 c-13 -12 -7 -41 10 -47 21 -9 46 16 37 37 -6 17 -35 23
-47 10z"/>
<path d="M13054 6025 c-10 -24 4 -62 23 -67 46 -11 74 22 53 62 -13 24 -68 28
-76 5z"/>
<path d="M13622 6021 c4 -13 18 -16 19 -4 0 4 -5 9 -11 12 -7 2 -11 -2 -8 -8z"/>
<path d="M12870 6005 c-11 -13 -11 -19 3 -32 21 -21 49 -9 45 19 -4 28 -30 35
-48 13z"/>
<path d="M13214 5955 c-4 -9 -2 -21 4 -27 16 -16 47 -5 47 17 0 26 -42 34 -51
10z"/>
<path d="M12685 5891 c-6 -11 9 -23 19 -14 9 9 7 23 -3 23 -6 0 -12 -4 -16 -9z"/>
<path d="M13580 5881 c0 -6 5 -13 10 -16 6 -3 10 1 10 9 0 9 -4 16 -10 16 -5
0 -10 -4 -10 -9z"/>
<path d="M12445 5870 c3 -5 10 -10 16 -10 5 0 9 5 9 10 0 6 -7 10 -16 10 -8 0
-12 -4 -9 -10z"/>
<path d="M13340 5860 c0 -5 5 -10 10 -10 6 0 10 5 10 10 0 6 -4 10 -10 10 -5
0 -10 -4 -10 -10z"/>
<path d="M11303 5819 c-93 -46 -97 -177 -6 -236 24 -16 54 -18 293 -18 291 0
313 4 352 58 29 41 30 116 2 155 -43 58 -64 62 -344 62 -237 0 -258 -1 -297
-21z"/>
<path d="M12783 5814 c-3 -8 2 -23 11 -32 15 -15 17 -15 32 0 21 21 11 48 -16
48 -11 0 -23 -7 -27 -16z"/>
<path d="M12920 5775 c-31 -38 27 -96 65 -65 18 15 20 51 3 68 -17 17 -53 15
-68 -3z"/>
<path d="M13142 5781 c-20 -12 -10 -46 14 -49 25 -4 40 24 23 44 -13 16 -19
17 -37 5z"/>
<path d="M12400 5730 c0 -5 7 -10 15 -10 8 0 15 5 15 10 0 6 -7 10 -15 10 -8
0 -15 -4 -15 -10z"/>
<path d="M12604 5695 c-4 -9 -2 -21 4 -27 16 -16 47 -5 47 17 0 26 -42 34 -51
10z"/>
<path d="M13310 5660 c0 -5 4 -10 9 -10 6 0 13 5 16 10 3 6 -1 10 -9 10 -9 0
-16 -4 -16 -10z"/>
<path d="M12835 5570 c-14 -43 19 -79 59 -64 22 8 31 50 16 69 -19 23 -67 19
-75 -5z"/>
<path d="M13170 5580 c0 -5 7 -10 15 -10 8 0 15 5 15 10 0 6 -7 10 -15 10 -8
0 -15 -4 -15 -10z"/>
<path d="M6550 8874 c-35 -7 -102 -32 -149 -54 -113 -55 -231 -170 -285 -280
-70 -143 -70 -141 -67 -925 3 -747 5 -794 54 -927 79 -218 275 -356 547 -385
50 -6 779 -7 1790 -4 l1705 6 85 31 c109 38 183 88 263 174 74 79 119 166 148
278 19 76 20 106 17 833 -4 732 -4 756 -24 815 -81 235 -249 393 -469 439
-103 21 -3516 21 -3615 -1z m3572 -348 c74 -24 138 -86 170 -164 l23 -57 0
-720 c0 -662 -1 -723 -17 -758 -31 -68 -76 -115 -143 -148 l-63 -31 -1334 -3
c-733 -2 -1520 0 -1748 4 l-415 7 -61 37 c-33 20 -72 53 -87 74 -53 78 -54 89
-51 844 3 676 3 697 24 751 24 66 77 123 139 152 44 20 65 21 451 26 223 3
1001 5 1730 5 1257 -1 1328 -2 1382 -19z"/>
<path d="M7046 6154 c-19 -18 -20 -28 -6 -55 12 -21 50 -25 68 -7 18 18 14 56
-7 68 -27 14 -37 13 -55 -6z"/>
<path d="M6750 6090 c0 -5 7 -10 15 -10 8 0 15 5 15 10 0 6 -7 10 -15 10 -8 0
-15 -4 -15 -10z"/>
<path d="M6620 6010 c0 -5 5 -10 10 -10 6 0 10 5 10 10 0 6 -4 10 -10 10 -5 0
-10 -4 -10 -10z"/>
<path d="M7294 5995 c-4 -9 -2 -21 4 -27 16 -16 47 -5 47 17 0 26 -42 34 -51
10z"/>
<path d="M6959 5949 c-16 -30 3 -69 34 -69 29 0 47 17 47 45 0 45 -60 63 -81
24z"/>
<path d="M7525 5940 c3 -5 10 -10 16 -10 5 0 9 5 9 10 0 6 -7 10 -16 10 -8 0
-12 -4 -9 -10z"/>
<path d="M6770 5916 c0 -21 5 -26 26 -26 21 0 25 4 22 23 -2 14 -11 23 -25 25
-19 3 -23 -1 -23 -22z"/>
<path d="M7120 5884 c-11 -12 -10 -18 3 -31 8 -9 23 -13 31 -10 21 8 21 43 0
51 -21 8 -20 8 -34 -10z"/>
<path d="M9755 5833 c-59 -16 -95 -67 -95 -133 0 -53 22 -95 63 -117 28 -16
63 -18 302 -18 247 0 273 2 301 19 83 50 87 178 7 232 -26 17 -51 19 -293 21
-146 1 -274 -1 -285 -4z"/>
<path d="M6590 5810 c0 -5 5 -10 10 -10 6 0 10 5 10 10 0 6 -4 10 -10 10 -5 0
-10 -4 -10 -10z"/>
<path d="M6350 5795 c0 -8 5 -15 10 -15 6 0 10 7 10 15 0 8 -4 15 -10 15 -5 0
-10 -7 -10 -15z"/>
<path d="M7480 5800 c0 -5 7 -10 15 -10 8 0 15 5 15 10 0 6 -7 10 -15 10 -8 0
-15 -4 -15 -10z"/>
<path d="M7246 5791 c-4 -5 -2 -12 3 -15 5 -4 12 -2 15 3 4 5 2 12 -3 15 -5 4
-12 2 -15 -3z"/>
<path d="M6691 5746 c-17 -20 -2 -48 23 -44 24 3 34 37 14 49 -18 12 -24 11
-37 -5z"/>
<path d="M6826 5699 c-23 -34 -6 -64 35 -64 30 0 34 3 37 30 6 49 -44 73 -72
34z"/>
<path d="M7033 5694 c-3 -8 2 -23 11 -32 15 -15 17 -15 32 0 21 21 11 48 -16
48 -11 0 -23 -7 -27 -16z"/>
<path d="M6310 5655 c0 -8 5 -15 10 -15 6 0 10 7 10 15 0 8 -4 15 -10 15 -5 0
-10 -7 -10 -15z"/>
<path d="M6510 5625 c-11 -13 -11 -19 3 -32 21 -21 49 -9 45 19 -4 28 -30 35
-48 13z"/>
<path d="M7215 5591 c-6 -11 9 -23 19 -14 9 9 7 23 -3 23 -6 0 -12 -4 -16 -9z"/>
<path d="M6746 5504 c-19 -18 -20 -28 -6 -55 12 -21 50 -25 68 -7 18 18 14 56
-7 68 -27 14 -37 13 -55 -6z"/>
<path d="M7080 5505 c0 -8 5 -15 10 -15 6 0 10 7 10 15 0 8 -4 15 -10 15 -5 0
-10 -7 -10 -15z"/>
<path d="M2844 8875 c-190 -41 -361 -171 -435 -330 -65 -140 -63 -109 -67
-903 -3 -786 -1 -832 53 -963 50 -123 161 -247 274 -304 25 -12 78 -33 116
-46 l70 -24 1107 -3 c1240 -3 1185 -6 1337 69 162 80 288 234 331 406 20 78
21 103 18 839 l-3 759 -28 80 c-60 169 -168 296 -310 365 -149 71 -123 70
-1331 69 -850 0 -1084 -3 -1132 -14z m2262 -343 c86 -27 142 -80 172 -164 20
-55 21 -75 23 -778 l1 -721 -31 -63 c-34 -69 -72 -104 -149 -138 -47 -21 -53
-21 -1107 -22 -851 -1 -1069 2 -1105 12 -82 24 -144 61 -168 98 -56 86 -54 61
-53 824 2 802 1 784 77 869 75 83 84 85 434 91 499 8 1872 3 1906 -8z"/>
<path d="M2484 6252 c-32 -22 -18 -82 19 -82 29 0 47 17 47 45 0 36 -37 57
-66 37z"/>
<path d="M2731 6096 c-17 -20 -2 -48 23 -44 24 3 34 37 14 49 -18 12 -24 11
-37 -5z"/>
<path d="M2390 6040 c-15 -29 -3 -59 26 -66 30 -8 54 11 54 40 0 46 -59 64
-80 26z"/>
<path d="M2955 6030 c3 -5 10 -10 16 -10 5 0 9 5 9 10 0 6 -7 10 -16 10 -8 0
-12 -4 -9 -10z"/>
<path d="M2550 5975 c-11 -13 -11 -19 3 -32 21 -21 49 -9 45 19 -4 28 -30 35
-48 13z"/>
<path d="M2910 5890 c0 -5 7 -10 15 -10 8 0 15 5 15 10 0 6 -7 10 -15 10 -8 0
-15 -4 -15 -10z"/>
<path d="M2675 5881 c-6 -11 9 -23 19 -14 9 9 7 23 -3 23 -6 0 -12 -4 -16 -9z"/>
<path d="M2463 5784 c-3 -8 2 -23 11 -32 15 -15 17 -15 32 0 21 21 11 48 -16
48 -11 0 -23 -7 -27 -16z"/>
<path d="M2645 5680 c-3 -5 1 -10 9 -10 9 0 16 5 16 10 0 6 -4 10 -9 10 -6 0
-13 -4 -16 -10z"/>
<path d="M2510 5595 c0 -8 5 -15 10 -15 6 0 10 7 10 15 0 8 -4 15 -10 15 -5 0
-10 -7 -10 -15z"/>
<path d="M23600 6284 c-224 -60 -373 -300 -421 -679 -15 -118 -15 -466 0 -580
30 -231 108 -442 204 -550 110 -124 297 -175 472 -129 200 51 338 251 397 571
30 162 32 597 5 772 -64 407 -247 613 -540 610 -34 0 -87 -7 -117 -15z"/>
<path d="M28130 6284 c-224 -60 -373 -300 -421 -679 -15 -118 -15 -466 0 -580
30 -231 108 -442 204 -550 110 -124 297 -175 472 -129 200 51 338 251 397 571
30 162 32 597 5 772 -64 407 -247 613 -540 610 -34 0 -87 -7 -117 -15z"/>
<path d="M30320 5794 l0 -457 148 6 c162 5 234 18 302 52 145 74 217 254 190
477 -21 177 -77 266 -205 328 -76 37 -158 50 -312 50 l-123 0 0 -456z"/>
<path d="M1794 4949 c-10 -17 23 -46 37 -32 7 7 9 19 6 27 -7 18 -33 21 -43 5z"/>
<path d="M23730 2114 c-11 -27 -82 -185 -157 -352 -75 -166 -134 -305 -131
-307 3 -3 145 -4 316 -3 l310 3 -150 345 c-82 190 -153 349 -158 354 -4 4 -18
-14 -30 -40z"/>
<path d="M31530 2754 c-224 -60 -373 -300 -421 -679 -15 -118 -15 -466 0 -580
30 -231 108 -442 204 -550 110 -124 297 -175 472 -129 200 51 338 251 397 571
30 162 32 597 5 772 -64 407 -247 613 -540 610 -34 0 -87 -7 -117 -15z"/>
<path d="M3955 2229 c-196 -18 -397 -138 -504 -302 -90 -138 -132 -312 -113
-463 22 -166 82 -292 194 -404 185 -188 455 -255 703 -176 115 36 196 88 285
183 128 136 193 294 194 473 0 351 -271 656 -612 688 -42 4 -108 4 -147 1z
m258 -302 c264 -130 321 -478 114 -688 -166 -169 -436 -168 -607 3 -228 227
-128 611 185 715 25 8 76 12 136 10 88 -2 103 -6 172 -40z"/>
<path d="M13834 2229 c-360 -33 -624 -326 -624 -693 0 -193 60 -337 200 -476
378 -379 990 -222 1149 295 90 289 -43 620 -312 783 -117 71 -268 104 -413 91z
m238 -296 c174 -82 281 -277 249 -456 -44 -250 -287 -414 -524 -352 -32 8 -76
24 -99 36 -68 35 -152 122 -189 197 -33 64 -34 71 -34 182 0 99 3 122 23 165
54 116 150 206 265 247 40 14 74 18 147 15 82 -2 104 -7 162 -34z"/>
</g>
</svg>
